<svg id="Layer_1" data-name="Layer 1" xmlns="http://www.w3.org/2000/svg" viewBox="0 0 639.55 358.77"><defs><style>.cls-1{fill:#b7b7b7;}.cls-2{fill:#f75c97;}.cls-3{fill:#13cece;}.cls-4{fill:#ffad36;}</style></defs><polygon class="cls-1" points="38.84 343.51 604.04 343.51 392.52 322.14 338.83 339.85 243.06 322.14 189.6 339.85 93.6 322.14 38.84 343.51"/><path class="cls-2" d="M311.88,254.9l-19.22-33.63a11.65,11.65,0,0,0-15.06-4.77l-67.91,31.89L169.53,149l25.75,1.06A23.78,23.78,0,0,1,204.05,129a22.25,22.25,0,0,1,2.56-1.75L152.45,125a1.77,1.77,0,0,0-.23,0h-.49c-.27,0-.53,0-.8,0l-.5,0-.77.13-.49.11c-.26.06-.51.14-.77.22s-.3.09-.45.15c-.33.12-.65.26-1,.41s-.45.23-.67.36-.35.19-.52.29l-.58.4-.43.32a3.4,3.4,0,0,0-.3.23L99,165.91l-20.5-25.62a11.65,11.65,0,0,0-18.19,14.55l28,34.94a11.66,11.66,0,0,0,16.59,1.64l42.31-35.54,18.55,45.9-60,33.43a11.67,11.67,0,0,0-5.52,6.91L78.75,315.5l-41.24,4.79a11.65,11.65,0,0,0,1.33,23.22,12.55,12.55,0,0,0,1.36-.08l48.91-5.68a11.65,11.65,0,0,0,9.84-8.3l22.24-76.21,53.33-29.7,18.18,45a11.63,11.63,0,0,0,15.75,6.18l69.32-32.55,13.88,24.29a11.65,11.65,0,0,0,20.23-11.55Z"/><path class="cls-2" d="M144.92,111c11.73-12.48,28.14-33.9,28.14-56a39.73,39.73,0,0,0-38.9-39.72c-20.1-.41-37.72,14.42-40.23,34.36-3,24,15.15,47.9,27.83,61.38A15.87,15.87,0,0,0,144.92,111ZM133.56,27.47a27.71,27.71,0,0,1,27.57,25h-5.81l-3.64-10.61a2.73,2.73,0,0,0-5.07-.24l-4.93,10.85h-8.36a2.73,2.73,0,0,0-2.53,1.7l-2.63,6.47L122.76,42a2.73,2.73,0,0,0-5.09-.39l-5.06,10.87H106A27.71,27.71,0,0,1,133.56,27.47ZM106,57.94h8.35a2.72,2.72,0,0,0,2.47-1.58l2.72-5.85,5.56,19.21a2.74,2.74,0,0,0,2.48,2h.14a2.73,2.73,0,0,0,2.53-1.7l4.91-12h8.28a2.75,2.75,0,0,0,2.49-1.6l2.81-6.21,2,6a2.72,2.72,0,0,0,2.58,1.85h7.75a27.7,27.7,0,0,1-55.12,0Z"/><path class="cls-3" d="M457,270.78a11.62,11.62,0,0,1-15.88-4.33l-13.89-24.29-69.32,32.55a11.69,11.69,0,0,1-9.2.3,11.65,11.65,0,0,1-6.54-6.47l-18.18-45-53.34,29.7-22.24,76.21a11.66,11.66,0,0,1-9.84,8.31l-48.91,5.67a10.34,10.34,0,0,1-1.36.08A11.64,11.64,0,0,1,187,320.3l41.24-4.79,21.42-73.39a11.62,11.62,0,0,1,5.52-6.9l60-33.44-18.55-45.9-42.31,35.53a11.64,11.64,0,0,1-16.59-1.64l-28-34.94A11.64,11.64,0,1,1,228,140.29l20.5,25.62,45.46-38.18a2.1,2.1,0,0,1,.3-.22,4.46,4.46,0,0,1,.43-.33l.58-.39c.17-.11.35-.21.52-.3s.44-.25.67-.36.64-.29,1-.41a4.75,4.75,0,0,1,.46-.14c.26-.09.51-.17.77-.24l.49-.1.77-.13.5-.06.8,0h.72L356,127.24a23.68,23.68,0,0,0-11.3,22.85L319,149l40.16,99.36,67.91-31.88a11.63,11.63,0,0,1,15.06,4.76l19.22,33.63A11.63,11.63,0,0,1,457,270.78Z"/><path class="cls-3" d="M294.38,111c11.73-12.48,28.14-33.9,28.14-56a39.73,39.73,0,0,0-38.9-39.72c-20.1-.41-37.72,14.42-40.23,34.36-3,24,15.15,47.9,27.83,61.38A15.87,15.87,0,0,0,294.38,111ZM283,27.47a27.71,27.71,0,0,1,27.57,25h-5.81l-3.64-10.61a2.73,2.73,0,0,0-5.07-.24l-4.92,10.85h-8.37a2.73,2.73,0,0,0-2.53,1.7l-2.63,6.47L272.22,42a2.73,2.73,0,0,0-5.09-.39l-5.06,10.87h-6.62A27.71,27.71,0,0,1,283,27.47ZM255.46,57.94h8.35a2.72,2.72,0,0,0,2.47-1.58L269,50.51l5.55,19.21a2.74,2.74,0,0,0,2.48,2h.15a2.73,2.73,0,0,0,2.52-1.7l4.91-12h8.28a2.74,2.74,0,0,0,2.49-1.6l2.81-6.21,2.05,6a2.73,2.73,0,0,0,2.58,1.85h7.75a27.7,27.7,0,0,1-55.12,0Z"/><path class="cls-4" d="M610.8,254.9l-19.21-33.63a11.66,11.66,0,0,0-15.07-4.77l-67.91,31.89L468.46,149l36.36,1.5,29,37.54a11.64,11.64,0,1,0,18.87-13.65l-27.07-37.73c-3.07-4.27-5.62-8.85-10.88-9.06L451.37,125a1.62,1.62,0,0,0-.22,0h-.5c-.26,0-.53,0-.79,0l-.5,0-.78.13-.49.11c-.26.06-.51.14-.76.22s-.31.09-.46.15a10.25,10.25,0,0,0-1,.41c-.23.11-.45.23-.68.36l-.52.29-.57.4-.44.32c-.1.08-.2.14-.3.23l-45.46,38.18-20.49-25.62a11.65,11.65,0,1,0-18.19,14.55l27.95,34.94a11.65,11.65,0,0,0,16.58,1.64l42.31-35.54,18.55,45.9-60,33.43a11.62,11.62,0,0,0-5.51,6.91L377.68,315.5l-41.24,4.79a11.65,11.65,0,0,0,1.32,23.22,12.4,12.4,0,0,0,1.36-.08L388,337.75a11.64,11.64,0,0,0,9.83-8.3l22.25-76.21,53.33-29.7,18.18,45a11.63,11.63,0,0,0,15.75,6.18l69.31-32.55,13.89,24.29A11.64,11.64,0,1,0,610.8,254.9Z"/><path class="cls-4" d="M443.84,111C455.57,98.51,472,77.09,472,55a39.73,39.73,0,0,0-38.9-39.72c-20.09-.41-37.72,14.42-40.23,34.36-3,24,15.16,47.9,27.83,61.38A15.87,15.87,0,0,0,443.84,111ZM432.48,27.47a27.71,27.71,0,0,1,27.57,25h-5.81L450.6,41.87A2.74,2.74,0,0,0,448.15,40a2.78,2.78,0,0,0-2.62,1.6l-4.92,10.85h-8.37a2.72,2.72,0,0,0-2.52,1.7l-2.64,6.47L421.69,42a2.73,2.73,0,0,0-5.1-.39l-5.06,10.87h-6.61A27.7,27.7,0,0,1,432.48,27.47ZM404.92,57.94h8.35a2.75,2.75,0,0,0,2.48-1.58l2.72-5.85L424,69.72a2.72,2.72,0,0,0,2.47,2h.15a2.74,2.74,0,0,0,2.53-1.7l4.9-12h8.29a2.73,2.73,0,0,0,2.48-1.6l2.82-6.21,2,6a2.73,2.73,0,0,0,2.58,1.85h7.76a27.7,27.7,0,0,1-55.13,0Z"/></svg>